<mxfile host="app.diagrams.net" modified="2023-06-16T14:49:33.901Z" agent="Mozilla/5.0 (Windows NT 10.0; Win64; x64) AppleWebKit/537.36 (KHTML, like Gecko) Chrome/114.0.0.0 Safari/537.36" etag="epE71T6ulD2LvmK132db" version="21.3.4" type="github">
  <diagram name="Sayfa -1" id="INUTvcJJS32lDGyezX1C">
    <mxGraphModel dx="1720" dy="1890" grid="1" gridSize="10" guides="1" tooltips="1" connect="1" arrows="1" fold="1" page="1" pageScale="1" pageWidth="827" pageHeight="1169" math="0" shadow="0">
      <root>
        <mxCell id="0" />
        <mxCell id="1" parent="0" />
        <mxCell id="ePMdHQmZZLZPlyvSFYmz-4" value="T" style="edgeStyle=orthogonalEdgeStyle;rounded=0;orthogonalLoop=1;jettySize=auto;html=1;" edge="1" parent="1" target="ePMdHQmZZLZPlyvSFYmz-3">
          <mxGeometry relative="1" as="geometry">
            <mxPoint x="180" y="160" as="sourcePoint" />
          </mxGeometry>
        </mxCell>
        <mxCell id="ePMdHQmZZLZPlyvSFYmz-16" value="F" style="edgeStyle=orthogonalEdgeStyle;rounded=0;orthogonalLoop=1;jettySize=auto;html=1;exitX=1;exitY=0.5;exitDx=0;exitDy=0;" edge="1" parent="1" source="ePMdHQmZZLZPlyvSFYmz-50" target="ePMdHQmZZLZPlyvSFYmz-15">
          <mxGeometry relative="1" as="geometry">
            <mxPoint x="240" y="130" as="sourcePoint" />
          </mxGeometry>
        </mxCell>
        <mxCell id="ePMdHQmZZLZPlyvSFYmz-7" value="F" style="edgeStyle=orthogonalEdgeStyle;rounded=0;orthogonalLoop=1;jettySize=auto;html=1;" edge="1" parent="1" source="ePMdHQmZZLZPlyvSFYmz-3" target="ePMdHQmZZLZPlyvSFYmz-6">
          <mxGeometry relative="1" as="geometry" />
        </mxCell>
        <mxCell id="ePMdHQmZZLZPlyvSFYmz-12" value="T" style="edgeStyle=orthogonalEdgeStyle;rounded=0;orthogonalLoop=1;jettySize=auto;html=1;" edge="1" parent="1" source="ePMdHQmZZLZPlyvSFYmz-3" target="ePMdHQmZZLZPlyvSFYmz-11">
          <mxGeometry relative="1" as="geometry" />
        </mxCell>
        <mxCell id="ePMdHQmZZLZPlyvSFYmz-3" value="full" style="rhombus;whiteSpace=wrap;html=1;fillColor=#FFD966;rounded=0;" vertex="1" parent="1">
          <mxGeometry x="140" y="230" width="80" height="80" as="geometry" />
        </mxCell>
        <mxCell id="ePMdHQmZZLZPlyvSFYmz-5" value="IDLE&lt;br&gt;" style="text;html=1;align=center;verticalAlign=middle;resizable=0;points=[];autosize=1;strokeColor=none;fillColor=none;" vertex="1" parent="1">
          <mxGeometry x="50" y="20" width="50" height="30" as="geometry" />
        </mxCell>
        <mxCell id="ePMdHQmZZLZPlyvSFYmz-21" style="edgeStyle=orthogonalEdgeStyle;rounded=0;orthogonalLoop=1;jettySize=auto;html=1;exitX=0.5;exitY=1;exitDx=0;exitDy=0;entryX=0.5;entryY=0;entryDx=0;entryDy=0;" edge="1" parent="1" source="ePMdHQmZZLZPlyvSFYmz-6" target="ePMdHQmZZLZPlyvSFYmz-20">
          <mxGeometry relative="1" as="geometry" />
        </mxCell>
        <mxCell id="ePMdHQmZZLZPlyvSFYmz-6" value="select pg" style="whiteSpace=wrap;html=1;fillColor=#EA6B66;rounded=0;" vertex="1" parent="1">
          <mxGeometry x="120" y="380" width="120" height="60" as="geometry" />
        </mxCell>
        <mxCell id="ePMdHQmZZLZPlyvSFYmz-8" value="WRITING" style="text;html=1;align=center;verticalAlign=middle;resizable=0;points=[];autosize=1;strokeColor=none;fillColor=none;" vertex="1" parent="1">
          <mxGeometry x="10" y="395" width="80" height="30" as="geometry" />
        </mxCell>
        <mxCell id="ePMdHQmZZLZPlyvSFYmz-14" value="T" style="edgeStyle=orthogonalEdgeStyle;rounded=0;orthogonalLoop=1;jettySize=auto;html=1;" edge="1" parent="1" source="ePMdHQmZZLZPlyvSFYmz-11" target="ePMdHQmZZLZPlyvSFYmz-13">
          <mxGeometry relative="1" as="geometry" />
        </mxCell>
        <mxCell id="ePMdHQmZZLZPlyvSFYmz-11" value="CTS" style="rhombus;whiteSpace=wrap;html=1;fillColor=#FFD966;rounded=0;" vertex="1" parent="1">
          <mxGeometry x="340" y="230" width="80" height="80" as="geometry" />
        </mxCell>
        <mxCell id="ePMdHQmZZLZPlyvSFYmz-19" style="edgeStyle=orthogonalEdgeStyle;rounded=0;orthogonalLoop=1;jettySize=auto;html=1;exitX=1;exitY=0.25;exitDx=0;exitDy=0;entryX=1;entryY=0.5;entryDx=0;entryDy=0;" edge="1" parent="1" source="ePMdHQmZZLZPlyvSFYmz-13" target="ePMdHQmZZLZPlyvSFYmz-52">
          <mxGeometry relative="1" as="geometry">
            <mxPoint x="660" y="80" as="targetPoint" />
          </mxGeometry>
        </mxCell>
        <mxCell id="ePMdHQmZZLZPlyvSFYmz-37" style="edgeStyle=orthogonalEdgeStyle;rounded=0;orthogonalLoop=1;jettySize=auto;html=1;exitX=0.5;exitY=1;exitDx=0;exitDy=0;entryX=0.5;entryY=0;entryDx=0;entryDy=0;" edge="1" parent="1" source="ePMdHQmZZLZPlyvSFYmz-13" target="ePMdHQmZZLZPlyvSFYmz-36">
          <mxGeometry relative="1" as="geometry" />
        </mxCell>
        <mxCell id="ePMdHQmZZLZPlyvSFYmz-13" value="" style="whiteSpace=wrap;html=1;fillColor=#FFFFFF;rounded=0;" vertex="1" parent="1">
          <mxGeometry x="520" y="240" width="120" height="60" as="geometry" />
        </mxCell>
        <mxCell id="ePMdHQmZZLZPlyvSFYmz-17" value="F" style="edgeStyle=orthogonalEdgeStyle;rounded=0;orthogonalLoop=1;jettySize=auto;html=1;exitX=0.5;exitY=1;exitDx=0;exitDy=0;entryX=0.5;entryY=0;entryDx=0;entryDy=0;" edge="1" parent="1" source="ePMdHQmZZLZPlyvSFYmz-15" target="ePMdHQmZZLZPlyvSFYmz-11">
          <mxGeometry relative="1" as="geometry" />
        </mxCell>
        <mxCell id="ePMdHQmZZLZPlyvSFYmz-15" value="empty" style="rhombus;whiteSpace=wrap;html=1;fillColor=#FFD966;rounded=0;" vertex="1" parent="1">
          <mxGeometry x="340" y="90" width="80" height="80" as="geometry" />
        </mxCell>
        <mxCell id="ePMdHQmZZLZPlyvSFYmz-18" value="READING" style="text;html=1;align=center;verticalAlign=middle;resizable=0;points=[];autosize=1;strokeColor=none;fillColor=none;" vertex="1" parent="1">
          <mxGeometry x="660" y="240" width="80" height="30" as="geometry" />
        </mxCell>
        <mxCell id="ePMdHQmZZLZPlyvSFYmz-24" value="" style="edgeStyle=orthogonalEdgeStyle;rounded=0;orthogonalLoop=1;jettySize=auto;html=1;" edge="1" parent="1" source="ePMdHQmZZLZPlyvSFYmz-20" target="ePMdHQmZZLZPlyvSFYmz-23">
          <mxGeometry relative="1" as="geometry" />
        </mxCell>
        <mxCell id="ePMdHQmZZLZPlyvSFYmz-20" value="Wr&lt;br&gt;select pg" style="rounded=1;whiteSpace=wrap;html=1;fillColor=#B5739D;" vertex="1" parent="1">
          <mxGeometry x="120" y="500" width="120" height="60" as="geometry" />
        </mxCell>
        <mxCell id="ePMdHQmZZLZPlyvSFYmz-22" value="STATE_WRITE_WAIT_1" style="text;html=1;align=center;verticalAlign=middle;resizable=0;points=[];autosize=1;strokeColor=none;fillColor=none;" vertex="1" parent="1">
          <mxGeometry x="260" y="500" width="160" height="30" as="geometry" />
        </mxCell>
        <mxCell id="ePMdHQmZZLZPlyvSFYmz-26" value="" style="edgeStyle=orthogonalEdgeStyle;rounded=0;orthogonalLoop=1;jettySize=auto;html=1;" edge="1" parent="1" source="ePMdHQmZZLZPlyvSFYmz-23" target="ePMdHQmZZLZPlyvSFYmz-25">
          <mxGeometry relative="1" as="geometry" />
        </mxCell>
        <mxCell id="ePMdHQmZZLZPlyvSFYmz-23" value="incPut" style="whiteSpace=wrap;html=1;rounded=1;fillColor=#B5739D;" vertex="1" parent="1">
          <mxGeometry x="120" y="580" width="120" height="60" as="geometry" />
        </mxCell>
        <mxCell id="ePMdHQmZZLZPlyvSFYmz-33" style="edgeStyle=orthogonalEdgeStyle;rounded=0;orthogonalLoop=1;jettySize=auto;html=1;exitX=0.5;exitY=1;exitDx=0;exitDy=0;entryX=0.5;entryY=0;entryDx=0;entryDy=0;" edge="1" parent="1" source="ePMdHQmZZLZPlyvSFYmz-25">
          <mxGeometry relative="1" as="geometry">
            <mxPoint x="180" y="770" as="targetPoint" />
          </mxGeometry>
        </mxCell>
        <mxCell id="ePMdHQmZZLZPlyvSFYmz-25" value="DAC" style="whiteSpace=wrap;html=1;rounded=1;fillColor=#B5739D;" vertex="1" parent="1">
          <mxGeometry x="120" y="660" width="120" height="60" as="geometry" />
        </mxCell>
        <mxCell id="ePMdHQmZZLZPlyvSFYmz-28" value="STATE_WRITE_WAIT_2" style="text;html=1;align=center;verticalAlign=middle;resizable=0;points=[];autosize=1;strokeColor=none;fillColor=none;" vertex="1" parent="1">
          <mxGeometry x="260" y="580" width="160" height="30" as="geometry" />
        </mxCell>
        <mxCell id="ePMdHQmZZLZPlyvSFYmz-29" value="STATE_WRITE_WAIT_3" style="text;html=1;align=center;verticalAlign=middle;resizable=0;points=[];autosize=1;strokeColor=none;fillColor=none;" vertex="1" parent="1">
          <mxGeometry x="260" y="660" width="160" height="30" as="geometry" />
        </mxCell>
        <mxCell id="ePMdHQmZZLZPlyvSFYmz-34" value="F" style="edgeStyle=orthogonalEdgeStyle;rounded=0;orthogonalLoop=1;jettySize=auto;html=1;exitX=0;exitY=0.5;exitDx=0;exitDy=0;entryX=0;entryY=0.5;entryDx=0;entryDy=0;" edge="1" parent="1" source="ePMdHQmZZLZPlyvSFYmz-54" target="ePMdHQmZZLZPlyvSFYmz-50">
          <mxGeometry relative="1" as="geometry">
            <mxPoint x="120" y="785" as="sourcePoint" />
            <mxPoint x="120" y="115" as="targetPoint" />
            <Array as="points">
              <mxPoint x="100" y="810" />
              <mxPoint x="100" y="130" />
            </Array>
          </mxGeometry>
        </mxCell>
        <mxCell id="ePMdHQmZZLZPlyvSFYmz-35" value="T" style="edgeStyle=orthogonalEdgeStyle;rounded=0;orthogonalLoop=1;jettySize=auto;html=1;exitX=1;exitY=0.5;exitDx=0;exitDy=0;entryX=1;entryY=0.5;entryDx=0;entryDy=0;" edge="1" parent="1" source="ePMdHQmZZLZPlyvSFYmz-54" target="ePMdHQmZZLZPlyvSFYmz-25">
          <mxGeometry relative="1" as="geometry">
            <mxPoint x="240" y="800" as="sourcePoint" />
            <Array as="points">
              <mxPoint x="260" y="810" />
              <mxPoint x="260" y="690" />
            </Array>
          </mxGeometry>
        </mxCell>
        <mxCell id="ePMdHQmZZLZPlyvSFYmz-42" style="edgeStyle=orthogonalEdgeStyle;rounded=0;orthogonalLoop=1;jettySize=auto;html=1;exitX=0.5;exitY=1;exitDx=0;exitDy=0;entryX=0.5;entryY=0;entryDx=0;entryDy=0;" edge="1" parent="1" source="ePMdHQmZZLZPlyvSFYmz-36" target="ePMdHQmZZLZPlyvSFYmz-41">
          <mxGeometry relative="1" as="geometry" />
        </mxCell>
        <mxCell id="ePMdHQmZZLZPlyvSFYmz-36" value="Wreg" style="rounded=1;whiteSpace=wrap;html=1;fillColor=#B5739D;" vertex="1" parent="1">
          <mxGeometry x="520" y="350" width="120" height="60" as="geometry" />
        </mxCell>
        <mxCell id="ePMdHQmZZLZPlyvSFYmz-38" value="STATE_READ_WAIT_1" style="text;html=1;align=center;verticalAlign=middle;resizable=0;points=[];autosize=1;strokeColor=none;fillColor=none;" vertex="1" parent="1">
          <mxGeometry x="650" y="358" width="150" height="30" as="geometry" />
        </mxCell>
        <mxCell id="ePMdHQmZZLZPlyvSFYmz-44" value="F" style="edgeStyle=orthogonalEdgeStyle;rounded=0;orthogonalLoop=1;jettySize=auto;html=1;exitX=0.5;exitY=1;exitDx=0;exitDy=0;entryX=0.5;entryY=0;entryDx=0;entryDy=0;" edge="1" parent="1" source="ePMdHQmZZLZPlyvSFYmz-41" target="ePMdHQmZZLZPlyvSFYmz-43">
          <mxGeometry relative="1" as="geometry" />
        </mxCell>
        <mxCell id="ePMdHQmZZLZPlyvSFYmz-47" value="T" style="edgeStyle=orthogonalEdgeStyle;rounded=0;orthogonalLoop=1;jettySize=auto;html=1;exitX=0;exitY=0.5;exitDx=0;exitDy=0;entryX=0;entryY=0.5;entryDx=0;entryDy=0;" edge="1" parent="1" source="ePMdHQmZZLZPlyvSFYmz-41" target="ePMdHQmZZLZPlyvSFYmz-36">
          <mxGeometry relative="1" as="geometry" />
        </mxCell>
        <mxCell id="ePMdHQmZZLZPlyvSFYmz-41" value="CTS" style="rhombus;whiteSpace=wrap;html=1;fillColor=#FFD966;" vertex="1" parent="1">
          <mxGeometry x="540" y="440" width="80" height="80" as="geometry" />
        </mxCell>
        <mxCell id="ePMdHQmZZLZPlyvSFYmz-55" style="edgeStyle=orthogonalEdgeStyle;rounded=0;orthogonalLoop=1;jettySize=auto;html=1;exitX=0.5;exitY=1;exitDx=0;exitDy=0;entryX=0.75;entryY=0;entryDx=0;entryDy=0;" edge="1" parent="1" source="ePMdHQmZZLZPlyvSFYmz-43" target="ePMdHQmZZLZPlyvSFYmz-52">
          <mxGeometry relative="1" as="geometry">
            <Array as="points">
              <mxPoint x="580" y="640" />
              <mxPoint x="820" y="640" />
              <mxPoint x="820" y="-10" />
              <mxPoint x="210" y="-10" />
            </Array>
          </mxGeometry>
        </mxCell>
        <mxCell id="ePMdHQmZZLZPlyvSFYmz-43" value="incGet" style="rounded=1;whiteSpace=wrap;html=1;fillColor=#B5739D;" vertex="1" parent="1">
          <mxGeometry x="520" y="560" width="120" height="60" as="geometry" />
        </mxCell>
        <mxCell id="ePMdHQmZZLZPlyvSFYmz-45" value="STATE_READ_WAIT_2" style="text;html=1;align=center;verticalAlign=middle;resizable=0;points=[];autosize=1;strokeColor=none;fillColor=none;" vertex="1" parent="1">
          <mxGeometry x="650" y="560" width="150" height="30" as="geometry" />
        </mxCell>
        <mxCell id="ePMdHQmZZLZPlyvSFYmz-50" value="DAV" style="rhombus;whiteSpace=wrap;html=1;fillColor=#FFD966;" vertex="1" parent="1">
          <mxGeometry x="140" y="90" width="80" height="80" as="geometry" />
        </mxCell>
        <mxCell id="ePMdHQmZZLZPlyvSFYmz-53" style="edgeStyle=orthogonalEdgeStyle;rounded=0;orthogonalLoop=1;jettySize=auto;html=1;exitX=0.5;exitY=1;exitDx=0;exitDy=0;entryX=0.5;entryY=0;entryDx=0;entryDy=0;" edge="1" parent="1" source="ePMdHQmZZLZPlyvSFYmz-52" target="ePMdHQmZZLZPlyvSFYmz-50">
          <mxGeometry relative="1" as="geometry" />
        </mxCell>
        <mxCell id="ePMdHQmZZLZPlyvSFYmz-52" value="" style="rounded=1;whiteSpace=wrap;html=1;" vertex="1" parent="1">
          <mxGeometry x="120" y="10" width="120" height="60" as="geometry" />
        </mxCell>
        <mxCell id="ePMdHQmZZLZPlyvSFYmz-54" value="DAV" style="rhombus;whiteSpace=wrap;html=1;fillColor=#FFD966;" vertex="1" parent="1">
          <mxGeometry x="140" y="770" width="80" height="80" as="geometry" />
        </mxCell>
      </root>
    </mxGraphModel>
  </diagram>
</mxfile>
